<?xml version="1.0" encoding="utf-8"?>
<!-- Generator: Adobe Illustrator 28.0.0, SVG Export Plug-In . SVG Version: 6.00 Build 0)  -->
<svg version="1.1" id="Layer_2_00000029043149374972716700000001428015039014549672_"
	 xmlns="http://www.w3.org/2000/svg" xmlns:xlink="http://www.w3.org/1999/xlink" x="0px" y="0px" viewBox="0 0 32 32"
	 style="enable-background:new 0 0 32 32;" xml:space="preserve">
<style type="text/css">
	.st0{fill-rule:evenodd;clip-rule:evenodd;fill:#656565;}
</style>
<path class="st0" d="M28,32H4c-2.2,0-4-1.8-4-4V5c0-2.8,2.2-5,5-5h23c2.2,0,4,1.8,4,4V28C32,30.2,30.2,32,28,32z M24.7,5.5
	c0.1,0.2,0.2,0.7-0.2,1.2l-3.9,5.6l-2.2-3.1l2.6-3.8c0.2-0.4,0.6-0.6,1.1-0.6h1.7C24.1,4.9,24.5,5.1,24.7,5.5 M18.3,15.4l-8.1,11.1
	c-0.2,0.4-0.6,0.6-1,0.6H7.4c-0.4,0-0.8-0.2-1-0.5c-0.2-0.4-0.2-0.8,0.1-1.2l7.2-10.1L7.5,6.6C7.2,6.2,7.2,5.8,7.4,5.4
	c0.2-0.4,0.5-0.5,1-0.5h1.7c0.2,0,0.7,0,1.1,0.5l0,0L18.3,15.4z M25.5,25.5c0.2,0.4,0.2,0.8,0,1.1c-0.2,0.3-0.5,0.5-1,0.5h-1.7
	c-0.2,0-0.3,0-0.5-0.1l-0.1,0l-4-5.3l2.2-3L25.5,25.5"/>
</svg>
