<?xml version="1.0" encoding="utf-8"?>
<!-- Generator: Adobe Illustrator 28.0.0, SVG Export Plug-In . SVG Version: 6.00 Build 0)  -->
<svg version="1.1" id="Layer_2_00000163771025845345034050000004299116929474990981_"
	 xmlns="http://www.w3.org/2000/svg" xmlns:xlink="http://www.w3.org/1999/xlink" x="0px" y="0px" viewBox="0 0 32 32"
	 style="enable-background:new 0 0 32 32;" xml:space="preserve">
<style type="text/css">
	.st0{fill-rule:evenodd;clip-rule:evenodd;fill:#656565;}
</style>
<path class="st0" d="M28,32H4c-2.2,0-4-1.8-4-4V5c0-2.8,2.2-5,5-5h23c2.2,0,4,1.8,4,4V28C32,30.2,30.2,32,28,32z M7.1,3.9L7.1,3.9
	L25,3.8v8.9h-9L7.1,3.9z M16,12.6l8.9,8.8v0.1H7v-8.9H16C16,12.6,16,12.6,16,12.6z M15.9,30.4v-8.9H7L15.9,30.4z"/>
</svg>
