<?xml version="1.0" encoding="utf-8"?>
<!-- Generator: Adobe Illustrator 28.0.0, SVG Export Plug-In . SVG Version: 6.00 Build 0)  -->
<svg version="1.1" id="Layer_2_00000056397741805111036880000015805523162771359109_"
	 xmlns="http://www.w3.org/2000/svg" xmlns:xlink="http://www.w3.org/1999/xlink" x="0px" y="0px" viewBox="0 0 32 32"
	 style="enable-background:new 0 0 32 32;" xml:space="preserve">
<style type="text/css">
	.st0{fill-rule:evenodd;clip-rule:evenodd;fill:#656565;}
	.st1{fill-rule:evenodd;clip-rule:evenodd;fill:#FFFFFF;}
</style>
<path class="st0" d="M28,32H4c-2.2,0-4-1.8-4-4V5c0-2.8,2.2-5,5-5h23c2.2,0,4,1.8,4,4V28C32,30.2,30.2,32,28,32z"/>
<g id="Layer_1-2_00000182510183382817625390000006377823862853809802_">
	<path class="st1" d="M22,9c0.8,0,1.6,0.7,1.6,1.5c0,1.5-3.9,5.2-3.9,7c0,0.3,0.2,0.5,0.5,0.5c1.1,0,3.1-2.8,3.7-3.8
		c0.8-1.2,1.5-1.2,1.9-0.8c0.6,0.6,0,1.8-0.4,2.5c-1.2,2.2-4.1,5.6-6.6,5.6c-0.7,0-1.2-0.2-1.7-0.7c-1.6-1.7,0-4.6,1.2-6.6
		c-2.7,2.1-3.8,5.3-4.8,6.3c-0.8,0.8-2.4,0.3-2.2-1.1c0.1-0.8,0.3-1.6,1.2-3.2c0.4-0.7,0.9-1.7,1.2-2.3c-4.1,3.3-4.4,6.5-5.4,7.5
		C7.4,22.3,6,21.8,6,20.3c0-2.5,3.6-10.6,5.6-12.1c0.8-0.6,2-0.1,2,0.9c0,0.8-1.3,2.6-2.2,4.5c1.9-2.4,3.3-3.9,4.4-4.5
		c1.2-0.6,2.1,0,2.1,0.9c0,0.9-0.8,2.1-1.8,3.9C17.6,12.3,20.6,9.1,22,9"/>
</g>
</svg>
