<?xml version="1.0" encoding="utf-8"?>
<!-- Generator: Adobe Illustrator 28.0.0, SVG Export Plug-In . SVG Version: 6.00 Build 0)  -->
<svg version="1.1" id="Layer_2_00000004543332913999370670000010500515736619044230_"
	 xmlns="http://www.w3.org/2000/svg" xmlns:xlink="http://www.w3.org/1999/xlink" x="0px" y="0px" viewBox="0 0 32 32"
	 style="enable-background:new 0 0 32 32;" xml:space="preserve">
<style type="text/css">
	.st0{fill:#656565;}
	.st1{fill-rule:evenodd;clip-rule:evenodd;fill:#656565;}
	.st2{fill:#FFFFFF;}
</style>
<g id="Layer_1-2">
	<g>
		<path class="st0" d="M-42.9,0v6.8c0,0.3,0,0.6,0,0.8s0.1,0.5,0.2,0.7c0.1,0.2,0.2,0.3,0.4,0.5C-42.1,9-41.9,9-41.5,9
			c0.5,0,0.9-0.2,1.1-0.5c0.2-0.3,0.3-0.9,0.3-1.6V0h1.1v6.8c0,0.2,0,0.4,0,0.6c0,0.2-0.1,0.5-0.1,0.7c-0.1,0.2-0.1,0.5-0.2,0.7
			s-0.2,0.4-0.4,0.6c-0.2,0.2-0.4,0.3-0.7,0.4c-0.3,0.1-0.6,0.2-1.1,0.2c-0.6,0-1.1-0.1-1.4-0.3s-0.6-0.4-0.7-0.7s-0.2-0.6-0.3-1
			c0-0.4,0-0.7,0-1.1V0L-42.9,0C-42.9,0-42.9,0-42.9,0z"/>
		<path class="st0" d="M-38,0h1.2l1.3,3.5l1.4-3.5h1.1L-35,4.5l2.2,5.3h-1.3l-1.6-4.1l-1.6,4.1h-1.1l2.1-5.1L-38,0z"/>
		<path class="st0" d="M-31.9,0h1.9c0.5,0,1,0.1,1.3,0.2c0.3,0.1,0.7,0.3,0.9,0.6c0.1,0.1,0.1,0.2,0.2,0.3s0.1,0.3,0.2,0.4
			s0.1,0.4,0.1,0.6c0,0.2,0,0.5,0,0.8c0,0.4,0,0.8-0.1,1.1s-0.2,0.7-0.5,0.9c-0.2,0.3-0.5,0.5-0.8,0.6c-0.3,0.2-0.8,0.2-1.3,0.2
			h-0.9v4h-1.1L-31.9,0L-31.9,0z M-30.8,4.8h0.9c0.2,0,0.4,0,0.6-0.1c0.2-0.1,0.4-0.2,0.5-0.3c0.1-0.2,0.3-0.3,0.3-0.6
			s0.1-0.6,0.1-1c0-0.5-0.1-0.9-0.2-1.1c-0.1-0.3-0.3-0.5-0.5-0.6S-29.2,1-29.4,1c-0.2,0-0.3,0-0.5,0h-0.8L-30.8,4.8L-30.8,4.8
			L-30.8,4.8z"/>
		<path class="st0" d="M-25.2,0v1.2h-1.1V0H-25.2z M-26.2,2.6h1v7.2h-1V2.6z"/>
		<path class="st0" d="M-24.1,2.6h0.9v1.1c0-0.1,0.1-0.2,0.1-0.3c0.1-0.2,0.2-0.3,0.3-0.4c0.1-0.2,0.3-0.3,0.5-0.4
			c0.2-0.1,0.4-0.2,0.7-0.2c0.3,0,0.6,0.1,0.8,0.2c0.2,0.2,0.4,0.3,0.5,0.5c0.1,0.2,0.2,0.5,0.2,0.9c0,0.4,0,0.8,0,1.2v4.6h-1V5.2
			c0-0.2,0-0.4,0-0.7c0-0.2,0-0.4-0.1-0.6c0-0.2-0.1-0.3-0.3-0.4s-0.3-0.2-0.5-0.2c-0.3,0-0.5,0.1-0.6,0.2c-0.1,0.2-0.3,0.4-0.3,0.6
			C-22.9,4.3-23,4.6-23,4.8s0,0.5,0,0.7v4.2h-1L-24.1,2.6L-24.1,2.6L-24.1,2.6z"/>
	</g>
</g>
<path class="st1" d="M28,32H4c-2.2,0-4-1.8-4-4V5c0-2.8,2.2-5,5-5h23c2.2,0,4,1.8,4,4V28C32,30.2,30.2,32,28,32z"/>
<g id="Layer_1-2_00000061461878533701042810000007879157504836023430_">
	<g>
		<path class="st2" d="M5.1,10v6.8c0,0.3,0,0.6,0,0.9c0,0.3,0.1,0.5,0.1,0.7c0.1,0.2,0.2,0.3,0.4,0.5C5.9,18.9,6.1,19,6.5,19
			c0.5,0,0.9-0.2,1.1-0.5s0.3-0.9,0.3-1.6V10H9v6.8c0,0.2,0,0.4,0,0.6c0,0.2-0.1,0.5-0.1,0.7c-0.1,0.2-0.1,0.5-0.2,0.7
			c-0.1,0.2-0.2,0.4-0.4,0.6c-0.2,0.2-0.4,0.3-0.7,0.4c-0.3,0.1-0.6,0.2-1.1,0.2c-0.6,0-1.1-0.1-1.4-0.3c-0.3-0.2-0.6-0.4-0.7-0.7
			s-0.2-0.6-0.3-1c0-0.4,0-0.7,0-1.1V10L5.1,10C5.1,10,5.1,10,5.1,10z"/>
		<path class="st2" d="M10,10h1.2l1.3,3.5l1.4-3.5h1.1L13,14.5l2.2,5.3h-1.3l-1.6-4.1l-1.6,4.1H9.7l2.1-5.1L10,10z"/>
		<path class="st2" d="M16.1,10H18c0.5,0,1,0.1,1.3,0.1c0.3,0.1,0.7,0.3,0.9,0.6c0.1,0.1,0.1,0.2,0.2,0.3c0.1,0.1,0.1,0.3,0.2,0.4
			s0.1,0.4,0.1,0.6c0,0.2,0,0.5,0,0.8c0,0.4,0,0.8-0.1,1.1s-0.2,0.7-0.5,0.9c-0.2,0.3-0.5,0.5-0.8,0.6c-0.3,0.1-0.8,0.2-1.3,0.2h-1
			v4h-1.1V10L16.1,10z M17.3,14.8h0.9c0.2,0,0.4,0,0.6-0.1c0.2,0,0.4-0.1,0.5-0.3c0.1-0.2,0.3-0.3,0.3-0.6s0.1-0.6,0.1-1
			c0-0.5-0.1-0.9-0.2-1.1c-0.1-0.3-0.3-0.5-0.5-0.6C19,11.1,18.8,11,18.6,11s-0.3,0-0.5,0h-0.9L17.3,14.8L17.3,14.8L17.3,14.8z"/>
		<path class="st2" d="M22.8,10v1.2h-1.1V10H22.8z M21.8,12.5h1v7.2h-1V12.5z"/>
		<path class="st2" d="M23.9,12.5h0.9v1.1c0-0.1,0.1-0.2,0.1-0.3c0.1-0.2,0.2-0.3,0.3-0.4c0.1-0.2,0.3-0.3,0.5-0.4
			c0.2-0.1,0.4-0.1,0.7-0.1c0.3,0,0.6,0.1,0.8,0.2c0.2,0.2,0.4,0.3,0.5,0.5c0.1,0.2,0.2,0.5,0.2,0.9c0,0.4,0,0.8,0,1.2v4.6h-1v-4.6
			c0-0.2,0-0.4,0-0.7c0-0.2,0-0.4-0.1-0.6c0-0.2-0.1-0.3-0.3-0.4s-0.3-0.2-0.5-0.2c-0.3,0-0.5,0.1-0.6,0.2c-0.1,0.2-0.3,0.4-0.3,0.6
			c-0.1,0.2-0.1,0.5-0.1,0.8c0,0.3,0,0.5,0,0.7v4.2h-1L23.9,12.5L23.9,12.5L23.9,12.5z"/>
	</g>
</g>
</svg>
